<svg width="110" height="110" viewBox="0 0 110 110" fill="none" xmlns="http://www.w3.org/2000/svg">
<g id="call 1">
<g clip-path="url(#clip0)">
<path id="Vector" d="M80.0704 94.0298C82.064 96.0044 82.064 98.0375 80.0884 100.089C80.0722 100.089 80.0704 100.102 80.0821 100.095C79.6145 100.597 79.1398 101.071 78.6497 101.553L62.108 85.0108L62.0576 84.9595L63.6528 83.3625C64.311 82.7043 65.3586 81.9094 66.5761 81.9094C67.7774 81.9094 68.7657 82.6648 69.3636 83.323L80.0704 94.0298Z" fill="#E48E66"/>
<path id="Vector_2" d="M62.108 85.0109L78.6497 101.553C78.3503 101.845 78.0419 102.142 77.7272 102.45C76.4152 103.675 75.168 104.968 73.991 106.322C72.0361 108.413 69.7323 109.4 66.7119 109.4C66.4215 109.4 66.1131 109.4 65.8208 109.381C60.0731 109.013 54.7301 106.769 50.7223 104.851C39.7143 99.5096 29.9723 91.8799 22.1484 82.4715C15.5464 74.5163 11.1331 67.159 8.20982 59.2613C6.40962 54.4407 5.7514 50.6838 6.04184 47.141C6.19471 44.9622 7.14517 42.9156 8.71158 41.3933L13.6014 36.5034L30.1522 53.0568C30.1297 53.0802 30.1081 53.1036 30.0856 53.1243C28.4581 54.7878 26.9114 56.3371 25.2263 57.8478C25.1868 57.8864 25.1481 57.9053 25.1292 57.944C23.4648 59.6084 23.7732 61.236 24.123 62.3384C24.1419 62.3959 24.1599 62.4562 24.1806 62.5137C25.5554 65.8426 27.4914 68.9799 30.4327 72.7161L30.4534 72.7341C35.7964 79.318 41.43 84.4462 47.6452 88.3757C48.415 88.8496 49.2098 89.283 50.0254 89.6742C50.7223 90.0221 51.3805 90.3512 51.9425 90.6983C52.019 90.7379 52.0972 90.7982 52.1727 90.8341C52.7644 91.1461 53.4217 91.3134 54.0907 91.3206C55.6967 91.3206 56.7029 90.3117 57.032 89.9826L62.0576 84.9596L62.108 85.0109Z" fill="#F8EC7D"/>
<path id="Vector_3" d="M31.75 45.4584C33.8029 47.5095 33.8029 49.4059 31.75 51.4596C31.2114 51.9983 30.6908 52.5387 30.1522 53.0566L13.6014 36.5032L15.3135 34.7911C16.2622 33.9 17.2702 33.4163 18.2557 33.4163C19.4759 33.4163 20.4633 34.1509 21.0828 34.7723C21.1035 34.7911 21.1215 34.8091 21.1421 34.8298C22.3237 35.9322 23.4441 37.0742 24.6257 38.2944C25.2263 38.914 25.845 39.5326 26.4645 40.1729L31.75 45.4584Z" fill="#E48E66"/>
</g>
</g>
<defs>
<clipPath id="clip0">
<rect x="0.110291" y="0.406738" width="108.993" height="108.993" fill="white"/>
</clipPath>
</defs>
</svg>
