<svg width="181" height="77" viewBox="0 0 181 77" fill="none" xmlns="http://www.w3.org/2000/svg">
<g id="cloud-ul-bg">
<path id="cloud" d="M175.188 35.9005C163.653 22.5635 138.781 25.0867 125.985 35.3598C124.723 25.267 118.596 16.0752 109.404 11.3893C99.8517 6.70331 90.66 10.6684 85.0729 18.5985C79.4857 0.215046 58.9396 -3.20932 42.3584 2.55803C35.1493 5.08124 27.5796 9.58698 24.3355 16.7962C21.8123 22.0228 23.2541 27.2495 26.318 31.575C3.60912 23.1042 -14.2336 73.5685 16.045 76.4521C16.2252 76.6324 16.5856 76.6324 16.7659 76.4521C17.3066 76.4521 17.667 76.4521 18.2077 76.4521C19.2891 76.4521 19.2891 74.8301 18.2077 74.6498C22.1728 71.2255 32.4459 72.6673 36.5911 72.8475C44.8817 73.3882 52.992 74.6498 61.1023 75.7312C71.7358 77.173 82.7298 76.9928 93.5436 76.9928C105.799 76.9928 118.055 76.8126 130.31 76.0916C143.828 75.3707 158.967 74.6498 171.042 67.4407C182.397 61.1326 183.839 45.9933 175.188 35.9005ZM160.048 70.6848C144.008 75.551 125.624 75.1905 109.043 75.551C94.625 75.9114 80.2066 75.551 65.7883 75.0103C59.1198 74.6498 52.2711 73.0278 45.6026 72.3068C38.7539 71.5859 31.9052 70.865 25.0564 71.4057C21.9925 71.5859 17.667 72.1266 15.6845 74.83C-13.5127 71.9464 7.39395 19.1391 30.1029 36.0807C31.004 36.6214 31.9051 35.3598 31.1842 34.6389C25.5971 29.7727 22.5332 23.2844 26.318 16.4357C29.9226 10.1277 37.312 6.34285 43.9805 3.99987C60.0209 -1.40702 79.4857 2.73826 83.8112 21.1217C83.9915 21.8426 85.0728 22.0228 85.4333 21.3019C90.6599 12.2904 99.6714 8.68583 109.224 13.3718C118.055 17.6973 123.642 27.4297 124.183 36.9819C124.183 37.7028 125.084 38.2435 125.805 37.7028C137.52 27.0692 160.409 24.7263 172.664 35.9005C178.612 41.3074 180.775 51.4002 177.35 58.7896C174.286 65.4581 166.537 68.7022 160.048 70.6848Z" fill="#333333"/>
</g>
</svg>
