<svg width="181" height="77" viewBox="0 0 181 77" fill="none" xmlns="http://www.w3.org/2000/svg">
<g id="cloud-ul-bg">
<path id="cloud" d="M175.188 35.9005C163.653 22.5635 138.781 25.0867 125.985 35.3598C124.723 25.267 118.596 16.0752 109.404 11.3893C99.8517 6.70331 90.66 10.6684 85.0729 18.5985C79.4857 0.215046 58.9396 -3.20932 42.3584 2.55803C35.1493 5.08124 27.5796 9.58698 24.3355 16.7962C21.8123 22.0228 23.2541 27.2495 26.318 31.575C3.60912 23.1042 -14.2336 73.5685 16.045 76.4521C16.2252 76.6324 16.5856 76.6324 16.7659 76.4521C17.3066 76.4521 17.667 76.4521 18.2077 76.4521C19.2891 76.4521 19.2891 74.8301 18.2077 74.6498C22.1728 71.2255 32.4459 72.6673 36.5911 72.8475C44.8817 73.3882 52.992 74.6498 61.1023 75.7312C71.7358 77.173 82.7298 76.9928 93.5436 76.9928C105.799 76.9928 118.055 76.8126 130.31 76.0916C143.828 75.3707 158.967 74.6498 171.042 67.4407C182.397 61.1326 183.839 45.9933 175.188 35.9005ZM160.048 70.6848C144.008 75.551 125.624 75.1905 109.043 75.551C94.625 75.9114 80.2066 75.551 65.7883 75.0103C59.1198 74.6498 52.2711 73.0278 45.6026 72.3068C38.7539 71.5859 31.9052 70.865 25.0564 71.4057C21.9925 71.5859 17.667 72.1266 15.6845 74.83C-13.5127 71.9464 7.39395 19.1391 30.1029 36.0807C31.004 36.6214 31.9051 35.3598 31.1842 34.6389C25.5971 29.7727 22.5332 23.2844 26.318 16.4357C29.9226 10.1277 37.312 6.34285 43.9805 3.99987C60.0209 -1.40702 79.4857 2.73826 83.8112 21.1217C83.9915 21.8426 85.0728 22.0228 85.4333 21.3019C90.6599 12.2904 99.6714 8.68583 109.224 13.3718C118.055 17.6973 123.642 27.4297 124.183 36.9819C124.183 37.7028 125.084 38.2435 125.805 37.7028C137.52 27.0692 160.409 24.7263 172.664 35.9005C178.612 41.3074 180.775 51.4002 177.35 58.7896C174.286 65.4581 166.537 68.7022 160.048 70.6848Z" fill="#333333"/>
<path id="active" d="M172.484 49.0572C166.356 53.0223 161.13 59.6908 154.281 61.8535C156.984 57.528 160.048 53.563 162.932 49.4177C163.473 48.5165 162.211 47.6154 161.49 48.3363C156.804 53.7432 151.938 59.1501 145.45 62.3942C149.054 57.1676 153.2 52.3014 156.624 46.7142C157.165 45.8131 155.903 44.9119 155.182 45.6329C148.153 52.842 141.485 60.7721 132.653 66.179C139.502 56.9873 147.793 48.877 154.641 39.5051C155.182 38.7841 154.101 37.883 153.38 38.2435C140.223 45.9933 132.113 59.6908 120.578 69.2429C127.787 58.9699 136.258 49.7781 142.025 38.6039C142.386 38.0632 141.845 36.9819 140.944 37.3423C125.264 43.8306 116.973 59.871 103.096 69.0627C108.683 59.871 116.793 52.3014 121.119 42.3887C121.479 41.4876 120.578 40.5864 119.677 41.3074C111.026 49.4177 104.538 61.4931 93.1831 66.3593C98.0493 56.0862 105.078 47.2549 111.026 37.883C111.567 36.9818 110.305 36.0807 109.584 36.8016C99.8516 46.7142 93.0029 59.5105 81.8287 68.1615C88.4971 54.1036 99.1307 42.3887 105.619 28.1506C105.979 27.2495 104.898 26.3483 104.177 27.0692C93.1832 38.2435 84.8926 52.1211 73.3579 62.7547C80.5671 48.5165 90.8401 35.9005 98.4098 21.8426C98.9505 20.9414 97.6889 20.2205 96.968 20.7612C81.288 33.197 73.1777 52.6618 57.8582 65.0977C66.8696 48.6968 83.0903 37.1621 91.2006 20.0403C91.5611 19.3194 90.8401 18.238 89.939 18.7787C71.1951 30.4936 63.986 56.0862 43.62 65.4581C51.0094 51.22 61.643 39.1446 69.3928 25.4472C69.9335 24.546 68.6719 23.6449 67.951 24.3658C56.7768 34.0982 51.0095 49.9584 38.3934 57.8885C45.0619 45.2724 54.2535 34.2784 62.9046 22.924L63.0848 22.7437C63.8057 21.8426 62.3639 20.9414 61.643 21.6623C55.8756 26.889 50.649 32.6564 45.4223 38.2435C51.1897 30.3134 56.0559 22.0228 56.957 12.2904C56.957 11.5695 56.0559 11.0288 55.5152 11.5695C51.7304 14.4532 48.306 17.8775 44.7014 21.1217C45.2421 19.1391 45.7828 17.3368 46.1432 15.1741C46.3235 14.2729 45.4223 13.7323 44.7014 14.2729C44.1607 14.6334 43.62 15.1741 43.0793 15.5346C44.1607 14.0927 45.2421 12.4706 46.1432 10.8486C46.5037 10.1277 45.963 9.58698 45.2421 9.58698C45.2421 8.86606 44.341 8.14514 43.8003 8.86606L43.62 9.04628C40.0154 13.7322 36.7713 18.4182 33.7074 23.4646C33.347 24.1856 33.8876 24.7263 34.4283 24.7263C34.4283 24.9065 34.4283 25.0867 34.6086 25.2669C34.0679 26.5285 33.7074 27.6099 33.5272 29.0518C33.3469 29.7727 34.0679 30.4936 34.7888 30.1331C36.9516 29.0518 38.9341 27.9704 40.7364 26.5285C39.4747 29.4122 38.2131 32.4761 37.1318 35.3598C36.7713 36.2609 38.0329 36.8016 38.5736 36.2609C41.277 33.5575 43.8003 30.6738 46.1432 27.6099C44.7014 31.3947 43.0793 34.9993 41.277 38.4237C41.0968 38.2435 40.5561 38.0632 40.1957 38.2435C35.3295 40.9469 31.7249 45.0922 28.4807 49.4177C30.283 45.9933 32.2656 42.7492 34.2481 39.5051C34.7888 38.6039 33.5272 37.7028 32.8063 38.4237C27.5796 42.7492 23.7948 48.1561 20.1902 53.9234C22.5332 49.0572 25.0564 44.3713 27.0389 39.3248C27.3994 38.4237 26.1378 37.883 25.5971 38.4237C20.7309 42.7492 16.9461 47.9759 13.3415 53.3827C15.1438 49.5979 17.1263 45.9933 18.9286 42.2085C19.4693 41.1271 17.8472 40.226 17.3065 41.3074L6.49275 62.9349C5.95206 64.0163 7.39389 64.7372 8.11481 63.8361C13.3415 56.9873 17.667 49.4177 23.4343 43.1097C20.0099 50.6793 16.0449 57.8885 12.8008 65.6383C12.8008 65.6383 12.8008 65.8186 12.6205 65.8186C12.2601 66.8999 13.7019 67.2604 14.2426 66.5395C19.289 59.1501 23.2541 51.22 29.0214 44.5515C26.318 49.0572 23.7948 53.563 21.632 58.4292C21.2716 59.3303 22.3529 60.4117 23.0739 59.5105L23.2541 59.3303C27.7598 53.563 31.7249 46.534 37.6724 42.0283C33.3469 49.0572 28.4807 55.7257 24.3355 62.9349C23.7948 63.8361 25.0564 64.9174 25.7773 64.0163C29.0214 60.2314 32.0854 56.2664 34.7888 52.1211C40.7364 45.6329 46.5037 38.9644 52.6315 32.6564C46.1432 41.1271 39.8352 49.7781 35.1492 59.5105C34.7888 60.4117 35.5097 61.1326 36.4109 60.7721C48.4862 54.8246 54.614 41.8481 63.0848 31.7552C55.5152 43.4701 46.6839 54.2839 40.5561 66.7197C40.1957 67.4406 40.7364 68.3418 41.6375 67.9813C62.7243 59.871 70.1138 34.9993 87.596 22.0228C78.5845 38.6039 62.1836 50.1386 54.0733 67.4406C53.7129 68.1616 54.4338 69.2429 55.3349 68.7022C71.3754 57.3478 79.6659 38.6039 93.7238 25.2669C85.7937 38.7841 75.8811 51.22 69.3928 65.6383C69.0324 66.5395 69.9336 67.4406 70.8347 66.7197C82.7298 56.9873 90.8401 44.0108 100.753 32.4761C93.7238 45.2724 84.1716 56.6269 78.4043 70.1441C78.0438 70.865 78.7648 71.9464 79.6659 71.4057C87.7763 65.9988 93.7238 58.4292 99.6714 50.8595C96.0668 56.0862 92.8227 61.6733 90.2995 67.4406C89.939 68.1616 90.4797 69.0627 91.3808 68.7022C102.195 65.0977 108.863 55.185 116.252 46.8945C111.206 55.185 103.997 62.214 99.3109 71.0452C98.9505 71.7661 99.6714 72.6673 100.573 72.3068C115.351 64.1965 123.462 47.6154 138.601 40.226C132.113 51.9409 122.741 61.6733 115.712 73.0277C115.171 73.7487 116.252 74.83 116.973 74.2893C129.409 65.6383 137.339 52.1211 149.415 43.1097C142.566 51.5804 134.636 59.3303 128.508 68.522C127.967 69.2429 129.049 70.1441 129.77 69.7836C136.799 66.3592 142.566 60.9524 148.153 55.3653C145.99 58.2489 144.008 60.9524 142.206 64.0163C141.845 64.7372 142.386 65.6383 143.287 65.2779C147.612 63.6558 151.037 61.3128 154.281 58.4292C153.2 59.871 152.298 61.4931 151.217 62.9349C150.857 63.6558 151.577 64.3767 152.298 64.1965C159.508 62.9349 164.914 56.8071 170.682 52.4816C169.06 56.0862 167.077 59.6908 164.734 62.9349C164.194 63.6558 165.275 64.557 165.996 64.1965C168.339 62.9349 170.502 61.3128 172.484 59.5105C173.205 58.7896 172.304 57.7082 171.403 58.0687C170.682 58.4291 169.961 58.7896 169.24 59.1501C170.862 56.2664 172.304 53.2025 173.746 49.9584C174.106 49.4177 173.205 48.6968 172.484 49.0572ZM36.5911 27.2495C36.9516 25.9879 37.4922 24.9065 38.0329 23.6449C40.0154 21.1217 42.3584 18.9589 44.7014 16.7962C44.1607 18.7787 43.62 20.9414 42.8991 22.924C40.7364 24.546 38.7538 26.1681 36.5911 27.2495ZM55.5152 14.0927C54.2536 22.3833 49.7478 29.9529 44.7014 36.9818C46.8642 32.4761 48.8467 27.7902 50.4687 23.1042C50.649 22.203 49.5676 21.4821 49.0269 22.203C46.5037 25.2669 44.1607 28.3308 41.6375 31.2145C42.5386 28.8715 43.62 26.5285 44.5212 24.1856C48.1258 20.9414 51.7304 17.3368 55.5152 14.0927Z" fill="#B3D9E4"/>
</g>
</svg>
