<svg width="185" height="185" viewBox="0 0 185 185" fill="none" xmlns="http://www.w3.org/2000/svg">
<path d="M171.992 101.6V145.292L132.376 163.59L132.145 163.091V119.808L171.992 101.6Z" fill="#6FE3FF"/>
<path d="M171.992 101.6L132.145 119.808L92.6192 101.749L132.347 83.3967V83.2883L171.992 101.6Z" fill="#E48E66"/>
<path d="M92.5 145.386V101.803L92.6192 101.749L132.145 119.808V163.091L132.376 163.59L132.145 163.698L92.5 145.386Z" fill="#F8EC7D"/>
<path d="M92.5 101.694V58.1145L132.347 39.7085V83.2883V83.3967L92.6192 101.749L92.5 101.694Z" fill="#6FE3FF"/>
<path d="M132.347 39.7085L92.5 58.1146L52.6527 39.7085L92.5 21.3025L132.347 39.7085Z" fill="#E48E66"/>
<path d="M92.5 145.386L53.0863 163.59L52.8551 163.091V119.808L92.3808 101.749L92.5 101.803V145.386Z" fill="#6FE3FF"/>
<path d="M52.6527 83.2883V39.7085L92.5 58.1145V101.694L92.3808 101.749L52.6527 83.3967V83.2883Z" fill="#F8EC7D"/>
<path d="M92.3808 101.749L52.8551 119.808L13.0078 101.6L52.6527 83.2883V83.3967L92.3808 101.749Z" fill="#E48E66"/>
<path d="M52.8551 163.091L53.0863 163.59L52.8551 163.698L13.0078 145.292V101.6L52.8551 119.808V163.091Z" fill="#F8EC7D"/>
<path d="M174.496 101.247C174.496 101.233 174.491 101.22 174.489 101.205C174.474 101.111 174.453 101.018 174.427 100.927C174.42 100.902 174.414 100.877 174.406 100.852C174.375 100.749 174.337 100.648 174.293 100.549C174.247 100.451 174.195 100.357 174.138 100.265C174.125 100.244 174.111 100.224 174.097 100.203C174.046 100.125 173.99 100.05 173.931 99.9791C173.921 99.9668 173.912 99.9545 173.901 99.943C173.83 99.8604 173.753 99.7827 173.671 99.7103C173.659 99.6991 173.645 99.6889 173.632 99.6781C173.56 99.6168 173.485 99.5596 173.406 99.5068C173.388 99.4946 173.37 99.4819 173.352 99.4707C173.261 99.4125 173.167 99.3603 173.069 99.3143C173.063 99.3114 173.058 99.3078 173.053 99.3052L134.877 81.6724V39.7099C134.877 39.7016 134.877 39.6937 134.877 39.6853C134.876 39.5746 134.868 39.464 134.853 39.3544C134.853 39.3417 134.848 39.3294 134.846 39.3164C134.831 39.2224 134.81 39.1293 134.785 39.0375C134.777 39.0107 134.77 38.9836 134.761 38.9569C134.732 38.8636 134.698 38.7721 134.659 38.6827C134.655 38.6733 134.651 38.6635 134.647 38.6545L134.645 38.6491C134.601 38.5538 134.55 38.4615 134.494 38.3726C134.481 38.3517 134.467 38.3318 134.453 38.3116C134.403 38.2345 134.347 38.1604 134.288 38.0894C134.277 38.0767 134.268 38.0633 134.257 38.0507C134.184 37.9674 134.107 37.8889 134.025 37.8158C134.015 37.8079 134.005 37.8007 133.996 37.7927C133.921 37.7279 133.842 37.6675 133.76 37.612C133.743 37.6005 133.726 37.5886 133.709 37.5759C133.616 37.5169 133.519 37.4638 133.42 37.4169C133.416 37.4151 133.412 37.4126 133.408 37.4108L93.5609 19.0058C93.2283 18.8522 92.8663 18.7726 92.5 18.7726C92.1337 18.7726 91.7717 18.8522 91.4391 19.0058L51.5919 37.4119C51.5879 37.4137 51.5846 37.4166 51.5803 37.4184C51.4816 37.4649 51.386 37.5177 51.2941 37.5766C51.2757 37.5882 51.258 37.6008 51.2403 37.6128C51.1595 37.667 51.082 37.7259 51.008 37.7891C50.9978 37.7978 50.9866 37.8057 50.9765 37.8148C50.8949 37.8875 50.8179 37.9654 50.746 38.0478C50.7341 38.0615 50.7236 38.076 50.712 38.0897C50.6537 38.1596 50.5993 38.2327 50.5491 38.3087C50.5353 38.3293 50.5209 38.3499 50.5079 38.3712C50.4519 38.4601 50.4013 38.5523 50.3565 38.6473L50.3543 38.6527C50.3503 38.6617 50.3471 38.6715 50.3431 38.6809C50.3037 38.7702 50.2695 38.8618 50.2405 38.9551C50.2322 38.9818 50.2246 39.0089 50.217 39.0357C50.1915 39.1274 50.1711 39.2206 50.156 39.3146C50.156 39.3276 50.1509 39.3399 50.1491 39.3526C50.1338 39.4622 50.1258 39.5728 50.1252 39.6835V39.7081V81.6699L11.9488 99.3027C11.943 99.3056 11.9376 99.3096 11.9314 99.3124C11.8347 99.3583 11.741 99.41 11.6507 99.4674C11.6315 99.4801 11.6145 99.4931 11.5943 99.5058C11.5166 99.5583 11.4418 99.615 11.3703 99.6756C11.3573 99.6868 11.3432 99.6973 11.3305 99.7088C11.2489 99.7812 11.1722 99.8588 11.1007 99.9412C11.0902 99.9531 11.0812 99.9657 11.0707 99.9773C11.0113 100.048 10.956 100.123 10.9049 100.2C10.8912 100.221 10.8771 100.242 10.8637 100.263C10.8061 100.354 10.7545 100.449 10.709 100.547C10.6649 100.646 10.627 100.747 10.5956 100.85C10.588 100.875 10.5815 100.9 10.5746 100.925C10.5488 101.016 10.5282 101.109 10.5132 101.203C10.511 101.217 10.5078 101.231 10.506 101.245C10.4904 101.355 10.4823 101.467 10.4818 101.579V101.598V145.29C10.4818 145.773 10.6201 146.246 10.8803 146.653C11.1405 147.059 11.5118 147.383 11.9502 147.586L51.7946 165.994C52.1297 166.149 52.4947 166.228 52.8638 166.227C53.233 166.226 53.5974 166.144 53.9315 165.987L92.5 148.172L131.084 165.994C131.419 166.149 131.784 166.228 132.153 166.227C132.521 166.226 132.886 166.144 133.22 165.987L173.053 147.588C173.491 147.385 173.863 147.062 174.123 146.655C174.383 146.248 174.521 145.775 174.521 145.292V101.6C174.521 101.594 174.521 101.587 174.521 101.581C174.52 101.469 174.512 101.358 174.496 101.247ZM52.5371 86.1287L86.3213 101.735L52.8554 117.027L19.0669 101.588L52.5371 86.1287ZM89.9707 59.7322V97.8476L55.182 81.7772V43.6628L89.9707 59.7322ZM129.818 81.7786L95.0293 97.8476V59.7322L129.818 43.6628V81.7786ZM55.3844 121.433L89.9707 105.631V143.768L55.3844 159.743V121.433ZM95.0293 105.629L129.616 121.433V159.743L95.0293 143.768V105.629ZM132.145 117.027L98.6787 101.735L132.467 86.1283L165.935 101.588L132.145 117.027ZM92.5 24.0883L126.316 39.7085L92.5 55.3287L58.6844 39.7099L92.5 24.0883ZM15.5371 105.537L50.3258 121.433V159.743L15.5371 143.674V105.537ZM134.674 159.743V121.433L169.463 105.537V143.674L134.674 159.743Z" fill="#63316D"/>
</svg>
