<svg id="Layer_1" height="512" viewBox="0 0 512 512" width="512" xmlns="http://www.w3.org/2000/svg" data-name="Layer 1"><path d="m476 281.186v120.92l-109.64 50.64-.64-1.38v-119.79z" fill="#6fe3ff"/><path d="m476 281.186-110.28 50.39-109.39-49.98 109.95-50.79v-.3z" fill="#e48e66"/><path d="m256 402.366v-120.62l.33-.15 109.39 49.98v119.79l.64 1.38-.64.3z" fill="#f8ec7d"/><path d="m256 281.446v-120.61l110.28-50.94v120.61.3l-109.95 50.79z" fill="#6fe3ff"/><path d="m366.28 109.896-110.28 50.94-110.28-50.94 110.28-50.94z" fill="#e48e66"/><path d="m256 402.366-109.08 50.38-.64-1.38v-119.79l109.39-49.98.33.15z" fill="#6fe3ff"/><path d="m145.72 230.506v-120.61l110.28 50.94v120.61l-.33.15-109.95-50.79z" fill="#f8ec7d"/><path d="m255.67 281.596-109.39 49.98-110.28-50.39 109.72-50.68v.3z" fill="#e48e66"/><path d="m146.28 451.366.64 1.38-.64.3-110.28-50.94v-120.92l110.28 50.39z" fill="#f8ec7d"/><path d="m482.929 280.208c0-.039-.014-.076-.02-.115a6.773 6.773 0 0 0 -.17-.771c-.019-.069-.037-.138-.058-.206a7.1 7.1 0 0 0 -.314-.839 6.984 6.984 0 0 0 -.429-.786c-.036-.059-.075-.115-.113-.173a6.753 6.753 0 0 0 -.46-.619c-.028-.034-.053-.068-.081-.1a6.927 6.927 0 0 0 -.638-.644c-.034-.031-.071-.059-.107-.089a7 7 0 0 0 -.626-.474c-.05-.034-.1-.069-.15-.1a6.945 6.945 0 0 0 -.783-.433c-.016-.008-.029-.018-.044-.025l-105.656-48.8v-116.134c0-.023 0-.045 0-.068a6.894 6.894 0 0 0 -.066-.916c0-.035-.014-.069-.019-.105a7.058 7.058 0 0 0 -.169-.772c-.021-.074-.042-.149-.065-.223a7.116 7.116 0 0 0 -.284-.759c-.011-.026-.02-.053-.031-.078l-.006-.015a6.874 6.874 0 0 0 -.42-.765c-.035-.058-.074-.113-.111-.169a7 7 0 0 0 -.457-.615c-.03-.035-.057-.072-.088-.107a6.914 6.914 0 0 0 -.642-.65c-.026-.022-.053-.042-.078-.064a6.94 6.94 0 0 0 -.654-.5c-.048-.032-.094-.065-.142-.1a7.267 7.267 0 0 0 -.8-.44c-.011-.005-.02-.012-.031-.017l-110.281-50.937a7 7 0 0 0 -5.872 0l-110.28 50.94c-.011.005-.02.013-.032.018a6.948 6.948 0 0 0 -.792.438c-.051.032-.1.067-.149.1a7.015 7.015 0 0 0 -.643.488c-.028.024-.059.046-.087.071a7.2 7.2 0 0 0 -.638.645c-.033.038-.062.078-.094.116a6.8 6.8 0 0 0 -.451.606c-.038.057-.078.114-.114.173a7.211 7.211 0 0 0 -.419.764l-.006.015c-.011.025-.02.052-.031.078a7.116 7.116 0 0 0 -.284.759c-.023.074-.044.149-.065.223a7.058 7.058 0 0 0 -.169.772c0 .036-.014.07-.019.105a6.894 6.894 0 0 0 -.066.916v.068 116.132l-105.656 48.8c-.016.008-.031.019-.048.027a7.177 7.177 0 0 0 -.777.429c-.053.035-.1.071-.156.106a7.163 7.163 0 0 0 -.62.47c-.036.031-.075.06-.11.092a6.9 6.9 0 0 0 -.636.643c-.029.033-.054.068-.083.1a6.9 6.9 0 0 0 -.459.617c-.038.058-.077.115-.114.174a6.978 6.978 0 0 0 -.428.786 7.1 7.1 0 0 0 -.314.839c-.021.068-.039.137-.058.206a6.773 6.773 0 0 0 -.17.771c-.006.039-.015.076-.02.115a6.837 6.837 0 0 0 -.067.924v.054 120.92a7 7 0 0 0 4.064 6.354l110.272 50.946a7 7 0 0 0 5.914-.02l106.741-49.304 106.784 49.324a7 7 0 0 0 5.91-.019l110.242-50.921a7 7 0 0 0 4.064-6.354v-120.92c0-.018 0-.036 0-.054a6.849 6.849 0 0 0 -.071-.924zm-337.529-41.841 93.5 43.192-92.619 42.32-93.512-42.728zm103.6-73.054v105.487l-96.28-44.476v-105.484zm110.28 61.015-96.28 44.472v-105.487l96.28-44.473zm-206 109.746 95.72-43.734v105.547l-95.72 44.213zm109.72-43.738 95.72 43.738v106.026l-95.72-44.212zm102.72 31.543-92.62-42.32 93.512-43.193 92.625 42.785zm-109.72-257.213 93.587 43.23-93.587 43.23-93.587-43.226zm-213 225.415 96.28 43.993v106.026l-96.28-44.472zm329.72 150.019v-106.026l96.28-43.993v105.547z" fill="#63316d"/></svg>