<svg width="106" height="106" viewBox="0 0 106 106" fill="none" xmlns="http://www.w3.org/2000/svg">
<g id="location (1) 2">
<path id="Vector" d="M45.09 68.3523L45.09 68.3523L45.0952 68.352C45.192 68.3465 45.2888 68.3601 45.3803 68.3922C45.4717 68.4243 45.5558 68.4742 45.6278 68.5391C45.6998 68.6039 45.7582 68.6824 45.7997 68.7699C45.8412 68.8575 45.8649 68.9524 45.8695 69.0492C45.8741 69.1459 45.8594 69.2427 45.8263 69.3338C45.7933 69.4248 45.7425 69.5084 45.6769 69.5798C45.6114 69.6511 45.5323 69.7087 45.4443 69.7493C45.3564 69.7899 45.2612 69.8126 45.1644 69.8161L45.1592 69.8164C35.9087 70.2527 27.4546 71.5106 21.3571 73.3688L21.5028 73.8471L21.3571 73.3688C17.26 74.6174 14.9957 75.8713 13.7473 76.9395C12.4863 78.0185 12.2401 78.9299 12.2401 79.4491C12.2401 80.0111 12.4879 80.5843 12.9342 81.14C13.3817 81.6971 14.0511 82.2657 14.9581 82.8326C16.7719 83.9663 19.6038 85.1348 23.7261 86.1919C31.4432 88.1708 41.7001 89.2555 52.6043 89.2555C63.5085 89.2555 73.7654 88.1708 81.4825 86.1919C85.6048 85.1348 88.4367 83.9663 90.2505 82.8326C91.1575 82.2657 91.8269 81.6971 92.2744 81.14C92.7207 80.5843 92.9685 80.0111 92.9685 79.4491C92.9685 78.9306 92.723 78.0204 91.4649 76.9426C90.2196 75.8756 87.9609 74.6229 83.8742 73.3751L83.7282 73.8533L83.8742 73.375C77.7928 71.5184 69.3574 70.2589 60.1252 69.8186C59.9327 69.8074 59.7524 69.7209 59.6232 69.5777C59.4937 69.4341 59.4262 69.2451 59.4354 69.0519C59.4446 68.8587 59.5298 68.677 59.6724 68.5464C59.8146 68.4162 60.0024 68.3472 60.1951 68.3545C68.8124 68.7655 77.4473 69.9442 83.9134 71.8657C87.1501 72.8276 89.8107 73.9662 91.6515 75.2655C93.4981 76.5688 94.4343 77.9689 94.4343 79.4491C94.4343 81.357 92.8993 83.0111 90.4232 84.4189C87.9792 85.8084 84.7889 86.8572 81.8466 87.6118C74.0399 89.6138 63.6549 90.7213 52.6043 90.7213C41.5537 90.7213 31.1687 89.614 23.362 87.6118C20.4198 86.8572 17.2294 85.8084 14.7854 84.4189C12.3093 83.0111 10.7743 81.357 10.7743 79.4491C10.7743 77.9661 11.7127 76.564 13.5633 75.2593C15.4082 73.9587 18.0746 72.8195 21.3183 71.8577C27.799 69.936 36.4533 68.7597 45.09 68.3523Z" fill="#6FE3FF" stroke="#E09EF0"/>
<path id="Vector_2" d="M76.6996 38.1794C76.6935 42.6942 75.306 47.0991 72.7234 50.8024L60.1004 69.0474L52.6043 79.8806L45.1308 69.0803L32.4852 50.8024C26.1912 41.7035 27.4796 29.6456 35.5675 21.9419C44.9767 12.9787 60.232 12.9787 69.6411 21.9419C74.2974 26.3763 76.6996 32.2553 76.6996 38.1794ZM67.5452 36.8848C67.5452 33.9298 66.6689 31.0412 65.0272 28.5842C63.3855 26.1271 61.052 24.2121 58.3219 23.0813C55.5919 21.9505 52.5878 21.6546 49.6895 22.2311C46.7913 22.8076 44.1291 24.2306 42.0396 26.3201C39.95 28.4096 38.5271 31.0718 37.9506 33.97C37.3741 36.8683 37.6699 39.8724 38.8008 42.6025C39.9316 45.3325 41.8466 47.666 44.3036 49.3077C46.7606 50.9494 49.6493 51.8257 52.6043 51.8257C56.5668 51.8255 60.367 50.2513 63.1689 47.4494C65.9708 44.6475 67.545 40.8473 67.5452 36.8848Z" fill="#E48E66"/>
<path id="Vector_3" d="M52.6043 21.9417C55.5595 21.9414 58.4485 22.8176 60.9057 24.4592C63.363 26.1009 65.2783 28.4344 66.4094 31.1646C67.5405 33.8948 67.8366 36.8991 67.2603 39.7975C66.684 42.696 65.2611 45.3585 63.1716 47.4483C61.0821 49.5381 58.4198 50.9614 55.5214 51.5381C52.623 52.1148 49.6186 51.8192 46.8883 50.6884C44.1579 49.5577 41.8242 47.6427 40.1822 45.1857C38.5402 42.7286 37.6637 39.8398 37.6635 36.8846C37.6633 34.9224 38.0496 32.9793 38.8004 31.1664C39.5512 29.3535 40.6517 27.7063 42.039 26.3187C43.4264 24.9311 45.0735 23.8304 46.8863 23.0794C48.6991 22.3284 50.6421 21.9418 52.6043 21.9417Z" fill="#F8EC7D"/>
</g>
</svg>
