<svg width="109" height="109" viewBox="0 0 109 109" fill="none" xmlns="http://www.w3.org/2000/svg">
<g id="mail 1">
<g clip-path="url(#clip0)">
<path id="Vector" d="M82.6691 45.728V90.331C82.6664 94.8715 78.9863 98.5517 74.4458 98.5543H8.65951C6.78513 98.5569 4.96632 97.9162 3.5078 96.7389C2.76378 96.1408 2.12828 95.4176 1.63082 94.6033C0.847735 93.3158 0.434487 91.8373 0.436224 90.331V45.7584L36.2507 76.0844C39.3188 78.6828 43.8168 78.6811 46.8832 76.0809L82.6691 45.728Z" fill="#E48E66"/>
<path id="Vector_2" d="M82.669 45.6908V45.7281L46.8832 76.0802C43.8168 78.6812 39.3188 78.6829 36.2507 76.0845L0.436218 45.7585V45.6908C0.436218 41.1494 4.11812 37.4675 8.6595 37.4675H74.4458C78.9871 37.4675 82.669 41.1494 82.669 45.6908Z" fill="#F8EC7D"/>
<path id="Vector_3" d="M81.4701 94.6094C80.9727 95.4238 80.3372 96.1461 79.5914 96.7425C79.5002 96.6869 79.4169 96.6201 79.3431 96.5428L58.764 75.6044C58.218 75.0357 58.2301 74.1337 58.7927 73.5815C59.3544 73.0285 60.2564 73.0303 60.8155 73.5859L81.3946 94.5243C81.4215 94.5512 81.4467 94.5808 81.4701 94.6094Z" fill="#AF593C"/>
<path id="Vector_4" d="M24.2266 75.601L3.76041 96.5333C3.68488 96.6115 3.5998 96.6809 3.50778 96.7391C2.76376 96.1409 2.12826 95.4177 1.6308 94.6034C1.6525 94.5748 1.67768 94.5496 1.70286 94.5227L22.1682 73.5903C22.5259 73.2161 23.0572 73.0624 23.5598 73.1892C24.0616 73.3151 24.4575 73.7023 24.5956 74.2015C24.7336 74.6998 24.5921 75.2346 24.2266 75.601Z" fill="#AF593C"/>
<path id="Vector_5" d="M82.0023 10.9875C96.7316 10.9875 108.672 22.9283 108.672 37.6576C108.672 52.387 96.7316 64.3278 82.0023 64.3278C67.273 64.3278 55.3322 52.387 55.3322 37.6576V37.5622C55.3852 22.8702 67.3103 10.9875 82.0023 10.9875Z" fill="#6FE3FF"/>
<g id="Group">
<path id="Vector_6" d="M99.0314 58.1802C98.6477 54.2188 96.808 50.5403 93.8684 47.8568C90.7013 44.9563 86.4873 43.3606 82.0023 43.3606C77.5174 43.3606 73.3033 44.9563 70.1362 47.8568C67.1966 50.5412 65.3569 54.2205 64.9732 58.1828C65.3439 58.4936 65.7233 58.7923 66.1114 59.0779C66.2199 59.1604 66.331 59.2429 66.4447 59.3227H66.4534L66.4517 59.3271C75.7463 65.9955 88.2592 65.9946 97.5529 59.3245L97.5512 59.3227H97.5555L99.0314 58.1802Z" fill="#2561A1"/>
<path id="Vector_7" d="M92.4481 29.883C92.4481 35.652 87.7713 40.3288 82.0023 40.3288C76.2333 40.3288 71.5565 35.652 71.5565 29.883C71.5565 24.1141 76.2333 19.4373 82.0023 19.4373C87.7713 19.4373 92.4481 24.1141 92.4481 29.883Z" fill="#2561A1"/>
</g>
</g>
</g>
<defs>
<clipPath id="clip0">
<rect x="0.436218" y="0.763916" width="108.236" height="108.236" fill="white"/>
</clipPath>
</defs>
</svg>
