<svg width="180" height="180" viewBox="0 0 180 180" fill="none" xmlns="http://www.w3.org/2000/svg">
<g id="baby-toy 1">
<path id="base" d="M166.12 150.064V163.828C166.12 164.761 165.75 165.655 165.091 166.314C164.431 166.973 163.537 167.344 162.605 167.344H17.3953C16.4629 167.344 15.5687 166.973 14.9094 166.314C14.2501 165.655 13.8797 164.761 13.8797 163.828V150.064C13.8797 149.132 14.2501 148.238 14.9094 147.579C15.5687 146.919 16.4629 146.549 17.3953 146.549H162.605C163.537 146.549 164.431 146.919 165.091 147.579C165.75 148.238 166.12 149.132 166.12 150.064Z" fill="#E48E66" stroke="#63316D" stroke-width="4"/>
<path id="palouki" d="M98 140.73V142H82V55.57C82 44.2797 82.8429 33.4519 84.3431 25.4685C85.8434 17.485 87.8783 13 90 13C92.1217 13 94.1566 17.485 95.6569 25.4685C97.1571 33.4519 98 44.2797 98 55.57V140.73Z" fill="#6FE3FF" stroke="#63316D" stroke-width="4"/>
<g id="cylinders">
<path id="cylinder_5" d="M158.692 133.817V135.002C158.692 137.799 157.581 140.482 155.603 142.46C153.625 144.438 150.942 145.549 148.145 145.549H31.8551C29.0579 145.549 26.3752 144.438 24.3973 142.46C22.4194 140.482 21.3082 137.799 21.3082 135.002V133.817C21.3082 131.02 22.4194 128.337 24.3973 126.359C26.3752 124.382 29.0579 123.27 31.8551 123.27H148.145C150.942 123.27 153.625 124.382 155.603 126.359C157.581 128.337 158.692 131.02 158.692 133.817Z" fill="#F8EC7D" stroke="#63316D" stroke-width="4"/>
<path id="cylinder_4" d="M145.698 112.539V113.723C145.698 116.521 144.587 119.203 142.609 121.181C140.631 123.159 137.948 124.27 135.151 124.27H44.8488C42.0516 124.27 39.369 123.159 37.3911 121.181C35.4131 119.203 34.302 116.521 34.302 113.723V112.539C34.302 109.741 35.4131 107.059 37.3911 105.081C39.369 103.103 42.0516 101.992 44.8488 101.992H135.151C137.948 101.992 140.631 103.103 142.609 105.081C144.587 107.059 145.698 109.741 145.698 112.539V112.539Z" fill="#E2D574" stroke="#63316D" stroke-width="4"/>
<path id="cylinder_3" d="M138.27 90.2601V91.4449C138.27 94.2421 137.158 96.9247 135.18 98.9027C133.203 100.881 130.52 101.992 127.723 101.992H52.2773C49.4801 101.992 46.7975 100.881 44.8196 98.9027C42.8417 96.9247 41.7305 94.2421 41.7305 91.4449V90.2601C41.7305 87.4629 42.8417 84.7803 44.8196 82.8024C46.7975 80.8244 49.4801 79.7133 52.2773 79.7133H127.723C130.52 79.7133 133.203 80.8244 135.18 82.8024C137.158 84.7803 138.27 87.4629 138.27 90.2601V90.2601Z" fill="#F8EC7D" stroke="#63316D" stroke-width="4"/>
<path id="cylinder_2" d="M130.845 67.9817V69.1665C130.845 71.9637 129.733 74.6463 127.755 76.6242C125.777 78.6022 123.095 79.7133 120.298 79.7133H59.7023C56.9051 79.7133 54.2225 78.6022 52.2446 76.6242C50.2667 74.6463 49.1555 71.9637 49.1555 69.1665V67.9817C49.1555 65.1845 50.2667 62.5019 52.2446 60.5239C54.2225 58.546 56.9051 57.4348 59.7023 57.4348H120.298C123.095 57.4348 125.777 58.546 127.755 60.5239C129.733 62.5019 130.845 65.1845 130.845 67.9817V67.9817Z" fill="#E2D574" stroke="#63316D" stroke-width="4"/>
<path id="cylinder_1" d="M123.42 45.7031V46.8879C123.42 49.6851 122.308 52.3677 120.33 54.3457C118.353 56.3236 115.67 57.4348 112.873 57.4348H67.1274C64.3301 57.4348 61.6475 56.3236 59.6696 54.3457C57.6917 52.3677 56.5805 49.6851 56.5805 46.8879V45.7031C56.5805 42.9059 57.6917 40.2233 59.6696 38.2454C61.6475 36.2674 64.3301 35.1563 67.1274 35.1562H112.873C115.67 35.1562 118.353 36.2674 120.33 38.2454C122.308 40.2233 123.42 42.9059 123.42 45.7031V45.7031Z" fill="#F8EC7D" stroke="#63316D" stroke-width="4"/>
</g>
</g>
</svg>
