<svg width="148" height="148" viewBox="0 0 148 148" fill="none" xmlns="http://www.w3.org/2000/svg">
<g id="baby-girl 1">
<g id="hand">
<path id="Vector" d="M104.947 103.473L107.809 101.964L125.046 92.6618L127.115 91.5461C129.245 90.3964 131.736 90.1111 134.07 90.7495C136.405 91.3879 138.404 92.9009 139.652 94.9743L99.0271 122.869C93.5506 125.58 87.3465 126.456 81.3335 125.366L57.8501 121.045C55.6906 120.502 53.4052 120.805 51.4618 121.892L38.7431 129.931L29.8573 100.787L29.9325 100.764C32.673 100.258 35.2224 99.0103 37.3036 97.1568L41.1943 93.6938C45.0118 90.821 49.5469 89.0554 54.302 88.5909C59.057 88.1263 63.8481 88.9808 68.1494 91.0604L69.7624 91.8409C72.2831 93.0606 75.0471 93.6941 77.8475 93.6938H93.4742C96.2367 93.6944 98.9086 94.679 101.011 96.471C103.113 98.263 104.509 100.745 104.947 103.473Z" fill="#F7CAA5"/>
<path id="Vector_2" d="M125.034 92.6417L125.046 92.6619L107.809 101.964L104.947 103.473C104.521 100.806 103.177 98.3724 101.149 96.5903L112.229 90.6211L115.047 89.1036C118.533 87.3374 123.103 89.2452 125.034 92.6417Z" fill="#EDB288"/>
<path id="Vector_3" d="M112.093 90.3667L112.229 90.6211L101.149 96.5902C99.0304 94.7194 96.3003 93.6891 93.4742 93.6938H90.0083L99.2236 88.6844C101.254 87.5072 103.617 87.0339 105.944 87.3381C108.271 87.6424 110.433 88.7071 112.093 90.3667Z" fill="#EDB288"/>
<path id="Vector_4" d="M38.7431 129.931L42.842 143.375H14.6179L8.34814 91.9479H27.1632L29.8573 100.787L38.7431 129.931ZM31.0135 134.376C31.0132 133.632 30.7924 132.905 30.3789 132.287C29.9654 131.668 29.3778 131.186 28.6904 130.902C28.003 130.617 27.2467 130.543 26.5171 130.688C25.7874 130.833 25.1172 131.192 24.5911 131.718C24.0651 132.244 23.7068 132.914 23.5616 133.644C23.4164 134.373 23.4908 135.13 23.7753 135.817C24.0599 136.504 24.5419 137.092 25.1603 137.505C25.7788 137.919 26.506 138.14 27.2499 138.14C28.2481 138.14 29.2053 137.743 29.9111 137.038C30.6169 136.332 31.0135 135.375 31.0135 134.376Z" fill="#E48E66"/>
<path id="Vector_5" d="M27.2499 130.613C27.9944 130.612 28.7223 130.833 29.3416 131.246C29.9609 131.659 30.4438 132.247 30.7291 132.934C31.0144 133.622 31.0893 134.379 30.9444 135.109C30.7995 135.839 30.4413 136.51 29.9151 137.037C29.3888 137.563 28.7182 137.922 27.9881 138.068C27.2579 138.213 26.5011 138.139 25.8132 137.854C25.1253 137.569 24.5374 137.087 24.1237 136.468C23.71 135.849 23.4892 135.121 23.4892 134.377C23.4893 133.379 23.8854 132.422 24.5906 131.716C25.2958 131.011 26.2523 130.614 27.2499 130.613Z" fill="#6FE3FF"/>
<g id="Group">
<path id="Vector_6" d="M126.155 89.7649L125.658 90.0335C122.761 86.6743 117.874 85.4033 114.132 87.2986C114.117 87.3062 114.103 87.3142 114.088 87.3221L112.616 88.1149C110.624 86.4783 108.181 85.4871 105.611 85.2735C103.042 85.0599 100.469 85.6339 98.2339 86.9191L89.4938 91.6704H77.8475C75.3528 91.6674 72.8908 91.1031 70.6437 90.0196L69.0305 89.2391C64.3974 86.9855 59.2312 86.0578 54.1035 86.5587C48.9759 87.0595 44.0868 88.9694 39.9774 92.0768C39.9329 92.1102 39.8898 92.1453 39.8482 92.1823L35.9571 95.6462C34.5862 96.8659 32.9764 97.7869 31.2301 98.3504L29.0982 91.3579C28.9717 90.943 28.7152 90.5796 28.3665 90.3215C28.0178 90.0634 27.5953 89.9242 27.1615 89.9245H8.34816C8.06179 89.9245 7.77868 89.9853 7.51756 90.1029C7.25643 90.2205 7.02324 90.3921 6.8334 90.6065C6.64355 90.821 6.50138 91.0732 6.41629 91.3467C6.33119 91.6201 6.30511 91.9085 6.33976 92.1928L12.6095 143.62C12.6693 144.11 12.9066 144.562 13.2766 144.89C13.6466 145.218 14.1237 145.398 14.6179 145.398H42.842C43.1582 145.398 43.4699 145.324 43.7523 145.182C44.0346 145.04 44.2797 144.833 44.4679 144.579C44.656 144.325 44.782 144.03 44.8358 143.719C44.8895 143.407 44.8695 143.087 44.7773 142.785L41.1284 130.818L52.4938 123.632C53.9765 122.815 55.7144 122.591 57.3558 123.006C57.3977 123.017 57.4405 123.026 57.4833 123.035L80.9722 127.357C87.4132 128.51 94.0542 127.573 99.9243 124.682C100.01 124.64 100.093 124.592 100.172 124.538L140.797 96.6432C141.222 96.3513 141.519 95.908 141.629 95.404C141.738 94.9 141.651 94.3733 141.385 93.9315C139.871 91.41 137.443 89.5697 134.606 88.7935C131.769 88.0174 128.742 88.3654 126.155 89.7649ZM115.982 90.8983C117.901 89.9392 120.293 90.6382 121.934 92.043L106.866 100.174L106.24 100.504C105.786 99.3023 105.165 98.1701 104.395 97.1412L115.982 90.8983ZM100.189 90.4621L100.238 90.435C101.504 89.7036 102.935 89.3057 104.396 89.2787C105.858 89.2517 107.303 89.5965 108.595 90.2806L101.354 94.1806C100.058 93.2607 98.6096 92.5751 97.0762 92.1549L100.189 90.4621ZM16.4098 141.352L10.6332 93.9714H25.6645L40.1098 141.352H16.4098ZM98.0026 121.117C92.9436 123.574 87.236 124.365 81.6995 123.376L58.2771 119.065C55.6353 118.414 52.8448 118.793 50.4724 120.125C50.4409 120.142 50.4099 120.161 50.3793 120.18L39.9034 126.802L32.4097 102.221C34.7152 101.487 36.8403 100.275 38.6474 98.666L42.4746 95.2594C45.9884 92.6209 50.1618 91.0026 54.5359 90.5827C58.9099 90.1627 63.315 90.9574 67.2666 92.8793L68.8793 93.6597C71.6762 95.0086 74.7408 95.7109 77.846 95.7147H93.4727C95.6475 95.7154 97.7575 96.4545 99.4575 97.8109C101.157 99.1673 102.346 101.061 102.83 103.181L91.852 102.683C87.7192 102.499 83.5783 102.691 79.4801 103.255C79.2156 103.29 78.9606 103.377 78.7298 103.511C78.499 103.644 78.297 103.823 78.1352 104.035C77.9735 104.247 77.8554 104.489 77.7876 104.747C77.7198 105.005 77.7037 105.274 77.7402 105.538C77.7767 105.802 77.8651 106.057 78.0003 106.287C78.1356 106.517 78.3149 106.718 78.5281 106.878C78.7413 107.039 78.9841 107.155 79.2425 107.221C79.5009 107.288 79.7699 107.302 80.0339 107.264C83.8884 106.733 87.7831 106.553 91.6702 106.726L104.999 107.33C105.029 107.33 105.06 107.332 105.09 107.332C105.627 107.332 106.142 107.119 106.521 106.739C106.901 106.36 107.114 105.845 107.114 105.309C107.114 105.081 107.106 104.853 107.095 104.625L108.768 103.742L128.075 93.3241C129.458 92.576 131.044 92.2889 132.601 92.5046C134.159 92.7203 135.607 93.4276 136.734 94.5235L98.0026 121.117Z" fill="#63316D"/>
<path id="Vector_7" d="M21.4658 134.376C21.4661 135.521 21.8057 136.639 22.4417 137.591C23.0776 138.542 23.9814 139.283 25.0387 139.721C26.096 140.158 27.2593 140.273 28.3815 140.049C29.5038 139.826 30.5345 139.274 31.3435 138.465C32.1524 137.656 32.7031 136.625 32.9261 135.502C33.1491 134.38 33.0342 133.217 32.596 132.16C32.1579 131.103 31.4161 130.199 30.4645 129.564C29.5129 128.928 28.3942 128.589 27.25 128.589C25.716 128.592 24.2456 129.202 23.1612 130.287C22.0768 131.372 21.4671 132.843 21.4658 134.376ZM27.25 132.636C27.5943 132.636 27.931 132.737 28.2175 132.928C28.5041 133.119 28.7276 133.391 28.8597 133.709C28.9919 134.026 29.0267 134.376 28.9599 134.714C28.8931 135.052 28.7276 135.362 28.4843 135.606C28.2411 135.85 27.931 136.016 27.5934 136.083C27.2558 136.15 26.9057 136.116 26.5876 135.984C26.2694 135.853 25.9975 135.63 25.8062 135.344C25.6148 135.057 25.5127 134.721 25.5127 134.376C25.5132 133.916 25.6963 133.474 26.0219 133.148C26.3475 132.821 26.7891 132.638 27.25 132.636Z" fill="#63316D"/>
</g>
</g>
<g id="head">
<g id="Group 7">
<path id="Vector_8" d="M112.552 36.2657C114.277 36.61 115.829 37.5412 116.944 38.901C118.059 40.2608 118.668 41.965 118.668 43.7235C118.668 45.4821 118.059 47.1863 116.944 48.5461C115.829 49.9058 114.277 50.8371 112.552 51.1814C110.89 57.7444 107.087 63.5657 101.744 67.7239C96.4013 71.882 89.8243 74.1394 83.054 74.1387C76.2838 74.138 69.7072 71.8794 64.3652 67.7202C59.0232 63.561 55.221 57.739 53.5604 51.1756C51.8414 50.8266 50.2959 49.894 49.1858 48.5359C48.0757 47.1777 47.4693 45.4776 47.4693 43.7235C47.4693 41.9695 48.0757 40.2693 49.1858 38.9112C50.2959 37.5531 51.8414 36.6205 53.5604 36.2715C54.997 30.587 58.0467 25.4393 62.3421 21.4484L62.504 21.4137C62.7512 22.6521 63.3298 23.8001 64.1782 24.7355C65.0267 25.6708 66.113 26.3584 67.3215 26.7248C68.53 27.0912 69.8153 27.1228 71.0403 26.8162C72.2653 26.5095 73.3841 25.8762 74.2775 24.9836L78.3446 20.9165C79.6281 22.1096 81.3155 22.7727 83.0679 22.7727C84.8202 22.7727 86.5076 22.1096 87.7911 20.9165L91.8582 24.9836C92.7563 25.8814 93.8824 26.517 95.1151 26.8218C96.3478 27.1267 97.6404 27.0892 98.8534 26.7136C100.066 26.3379 101.154 25.6382 101.998 24.69C102.843 23.7418 103.413 22.581 103.646 21.3328C108.005 25.3378 111.1 30.5275 112.552 36.2657Z" fill="#F7CAA5"/>
<path id="Vector_9" d="M103.765 20.0522C103.764 20.4818 103.725 20.9104 103.646 21.3328C103.413 22.581 102.843 23.7418 101.998 24.69C101.154 25.6382 100.066 26.3379 98.8534 26.7136C97.6404 27.0893 96.3479 27.1267 95.1152 26.8218C93.8825 26.517 92.7564 25.8814 91.8583 24.9836L87.7912 20.9165C88.4923 20.2666 89.0516 19.4788 89.4341 18.6026C89.8166 17.7265 90.0141 16.7807 90.0141 15.8247C90.0141 14.8687 89.8166 13.9229 89.4341 13.0468C89.0516 12.1706 88.4923 11.3828 87.7912 10.7329L91.8583 6.66576C93.1093 5.41539 94.7885 4.68697 96.5562 4.62792C98.3239 4.56886 100.048 5.18359 101.38 6.34769C102.711 7.51178 103.551 9.1383 103.729 10.898C103.906 12.6578 103.409 14.4193 102.337 15.8261C103.264 17.0398 103.766 18.525 103.765 20.0522Z" fill="#F8EC7D"/>
<path id="Vector_10" d="M87.7912 10.7329C88.9778 11.8333 89.743 13.3135 89.9547 14.9179C90.1664 16.5224 89.8112 18.1504 88.9505 19.5208C88.0898 20.8913 86.7776 21.9183 85.2405 22.4245C83.7033 22.9306 82.0377 22.8842 80.5311 22.2932C79.0246 21.7021 77.7716 20.6037 76.9886 19.1873C76.2056 17.771 75.9417 16.1258 76.2425 14.5356C76.5432 12.9455 77.3897 11.5102 78.6358 10.4777C79.882 9.44509 81.4495 8.88003 83.0679 8.88001C84.8201 8.87718 86.5082 9.53939 87.7912 10.7329Z" fill="#6FE3FF"/>
<path id="Vector_11" d="M78.3446 20.9165L74.2775 24.9836C73.0271 26.2349 71.348 26.9643 69.58 27.024C67.8121 27.0837 66.0876 26.4693 64.7556 25.3053C63.4237 24.1412 62.5839 22.5145 62.4062 20.7545C62.2286 18.9946 62.7265 17.2328 63.799 15.8261C62.727 14.4193 62.2295 12.6578 62.4072 10.898C62.5849 9.1383 63.4245 7.51178 64.7561 6.34769C66.0877 5.18359 67.8119 4.56886 69.5796 4.62792C71.3473 4.68697 73.0265 5.41539 74.2775 6.66576L78.3446 10.7329C77.6435 11.3828 77.0842 12.1706 76.7017 13.0468C76.3192 13.9229 76.1217 14.8687 76.1217 15.8247C76.1217 16.7807 76.3192 17.7265 76.7017 18.6026C77.0842 19.4788 77.6435 20.2666 78.3446 20.9165Z" fill="#F8EC7D"/>
</g>
<g id="Group 6">
<path id="Vector_12" d="M51.9096 34.6296C50.0215 35.287 48.3849 36.5156 47.2267 38.1452C46.0685 39.7747 45.4463 41.7243 45.4463 43.7235C45.4463 45.7227 46.0685 47.6724 47.2267 49.3019C48.3849 50.9315 50.0215 52.1601 51.9096 52.8175C53.8786 59.5528 57.9777 65.4685 63.5925 69.6775C69.2073 73.8866 76.0351 76.1623 83.0524 76.1634C90.0696 76.1645 96.8982 73.891 102.514 69.6837C108.13 65.4764 112.231 59.562 114.203 52.8273C116.097 52.1739 117.741 50.9456 118.905 49.3136C120.068 47.6816 120.693 45.7273 120.693 43.723C120.693 41.7187 120.068 39.7643 118.905 38.1323C117.741 36.5003 116.097 35.272 114.203 34.6187C112.646 29.2875 109.743 24.4468 105.773 20.563C105.783 20.3925 105.79 20.2222 105.79 20.0522C105.787 18.5791 105.425 17.129 104.734 15.8279C105.749 13.9242 106.046 11.7195 105.571 9.61521C105.096 7.51096 103.881 5.64725 102.148 4.3636C100.414 3.07995 98.2771 2.46178 96.1259 2.6217C93.9747 2.78162 91.9525 3.709 90.4277 5.23488L87.586 8.07752C86.2149 7.27788 84.6561 6.85653 83.0689 6.85653C81.4817 6.85653 79.923 7.27788 78.5519 8.07752L75.7084 5.2343C74.1838 3.70962 72.1623 2.78315 70.0121 2.62356C67.8618 2.46397 65.7257 3.08188 63.9928 4.36479C62.2598 5.6477 61.0451 7.51029 60.57 9.61345C60.0948 11.7166 60.3907 13.9205 61.4038 15.8238C60.6326 17.2733 60.2727 18.9062 60.3632 20.5457C56.3804 24.4347 53.4686 29.2858 51.9096 34.6296ZM110.589 36.7609C110.683 37.1325 110.88 37.4698 111.158 37.7336C111.436 37.9974 111.783 38.1768 112.159 38.251C113.424 38.5044 114.563 39.1882 115.38 40.1861C116.198 41.184 116.645 42.4343 116.644 43.7244C116.644 45.0145 116.197 46.2647 115.379 47.2623C114.561 48.2599 113.423 48.9434 112.158 49.1964C111.782 49.2709 111.435 49.4504 111.158 49.7142C110.88 49.978 110.683 50.3151 110.589 50.6865C109.037 56.8125 105.487 62.2461 100.5 66.1272C95.5123 70.0084 89.3731 72.1154 83.0535 72.1149C76.734 72.1143 70.5951 70.0063 65.6085 66.1243C60.6218 62.2423 57.0722 56.8082 55.5214 50.6819C55.4282 50.3113 55.2319 49.9748 54.9554 49.7111C54.6788 49.4475 54.3333 49.2675 53.9587 49.192C52.698 48.9351 51.5648 48.2504 50.7509 47.2538C49.937 46.2573 49.4925 45.0102 49.4925 43.7235C49.4925 42.4369 49.937 41.1898 50.7509 40.1933C51.5648 39.1967 52.698 38.512 53.9587 38.2551C54.3333 38.1796 54.6788 37.9997 54.9553 37.7361C55.2319 37.4725 55.4281 37.136 55.5214 36.7655C56.6289 32.3733 58.776 28.3117 61.7816 24.9229C62.5096 26.0513 63.4808 27.0026 64.624 27.7071C65.7673 28.4116 67.0536 28.8514 68.3888 28.9944C69.724 29.1374 71.0743 28.98 72.3408 28.5336C73.6073 28.0872 74.7579 27.3631 75.7084 26.4145L78.5499 23.573C79.921 24.3736 81.4803 24.7954 83.0681 24.7954C84.6558 24.7954 86.2151 24.3736 87.5863 23.573L90.4274 26.4142C92.115 28.1013 94.4036 29.0491 96.7899 29.0491C99.1761 29.0491 101.465 28.1013 103.152 26.4142C103.601 25.9643 104 25.4685 104.345 24.9351C107.343 28.3208 109.484 32.3762 110.59 36.7609H110.589ZM100.289 8.09573C101.134 8.94426 101.644 10.0696 101.725 11.2644C101.806 12.4592 101.452 13.643 100.729 14.5976C100.46 14.9504 100.314 15.3821 100.314 15.8261C100.314 16.2701 100.46 16.7018 100.729 17.0546C101.389 17.9147 101.745 18.969 101.741 20.0528C101.741 20.3585 101.712 20.6634 101.656 20.9639C101.49 21.8496 101.085 22.673 100.486 23.3456C99.8859 24.0182 99.114 24.5143 98.2532 24.7807C97.3923 25.047 96.4752 25.0734 95.6004 24.8571C94.7257 24.6407 93.9266 24.1897 93.2892 23.5528L90.5309 20.7942C91.5136 19.3233 92.0381 17.594 92.0381 15.825C92.0381 14.056 91.5136 12.3267 90.5309 10.8557L93.2897 8.09718C94.2192 7.17141 95.4775 6.65151 96.7893 6.65124C98.1011 6.65097 99.3596 7.17035 100.289 8.09573ZM86.4144 12.2163C87.2554 12.9961 87.7978 14.0451 87.9478 15.1821C88.0978 16.3192 87.8461 17.4729 87.2362 18.4442C86.6262 19.4154 85.6963 20.1432 84.6069 20.5019C83.5175 20.8606 82.3371 20.8277 81.2694 20.4088C80.2018 19.9899 79.3139 19.2114 78.759 18.2076C78.2042 17.2039 78.0172 16.0379 78.2304 14.911C78.4437 13.7841 79.0437 12.767 79.9269 12.0353C80.8101 11.3036 81.921 10.9033 83.0679 10.9034C84.3108 10.8978 85.5088 11.3679 86.4161 12.2175L86.4144 12.2163ZM65.8441 8.09718C66.7739 7.17095 68.0328 6.65091 69.3452 6.65091C70.6577 6.65091 71.9166 7.17095 72.8464 8.09718L75.6063 10.8569C74.623 12.3273 74.098 14.0565 74.0977 15.8255C74.0975 17.5945 74.622 19.3238 75.6049 20.7945L72.8467 23.5528C71.9595 24.4419 70.7675 24.9605 69.5123 25.0036C68.257 25.0467 67.0323 24.611 66.0862 23.7848C65.1402 22.9586 64.5436 21.8036 64.4174 20.554C64.2911 19.3043 64.6446 18.0534 65.4062 17.0546C65.6758 16.7018 65.8218 16.2701 65.8218 15.8261C65.8218 15.3821 65.6758 14.9504 65.4062 14.5976C64.68 13.6446 64.324 12.4605 64.4045 11.265C64.4849 10.0695 64.9962 8.94376 65.8435 8.0966L65.8441 8.09718Z" fill="#63316D"/>
<path id="Vector_13" d="M72.9045 39.9195C72.9045 40.4561 73.1177 40.9708 73.4972 41.3503C73.8766 41.7297 74.3913 41.9429 74.9279 41.9429C75.4646 41.9429 75.9793 41.7297 76.3587 41.3503C76.7382 40.9708 76.9514 40.4561 76.9514 39.9195C76.9514 38.0013 76.1894 36.1618 74.8331 34.8054C73.4767 33.4491 71.6372 32.6871 69.719 32.6871C67.8009 32.6871 65.9613 33.4491 64.605 34.8054C63.2487 36.1618 62.4867 38.0013 62.4867 39.9195C62.4867 40.4561 62.6999 40.9708 63.0793 41.3503C63.4588 41.7297 63.9735 41.9429 64.5101 41.9429C65.0468 41.9429 65.5615 41.7297 65.9409 41.3503C66.3204 40.9708 66.5336 40.4561 66.5336 39.9195C66.5336 39.0746 66.8692 38.2644 67.4666 37.667C68.064 37.0696 68.8742 36.734 69.719 36.734C70.5639 36.734 71.3741 37.0696 71.9715 37.667C72.5689 38.2644 72.9045 39.0746 72.9045 39.9195Z" fill="#63316D"/>
<path id="Vector_14" d="M96.4168 32.6843C94.4989 32.6869 92.6604 33.45 91.3045 34.8064C89.9487 36.1628 89.1862 38.0017 89.1844 39.9196C89.1844 40.1853 89.2368 40.4484 89.3385 40.6939C89.4402 40.9394 89.5892 41.1625 89.7771 41.3503C89.965 41.5382 90.1881 41.6873 90.4336 41.789C90.679 41.8907 90.9422 41.943 91.2079 41.943C91.4736 41.943 91.7367 41.8907 91.9822 41.789C92.2277 41.6873 92.4508 41.5382 92.6387 41.3503C92.8266 41.1625 92.9756 40.9394 93.0773 40.6939C93.179 40.4484 93.2313 40.1853 93.2313 39.9196C93.2313 39.0747 93.5669 38.2645 94.1643 37.6671C94.7617 37.0697 95.572 36.7341 96.4168 36.7341C97.2616 36.7341 98.0719 37.0697 98.6693 37.6671C99.2667 38.2645 99.6023 39.0747 99.6023 39.9196C99.6023 40.4562 99.8154 40.9709 100.195 41.3503C100.574 41.7298 101.089 41.943 101.626 41.943C102.162 41.943 102.677 41.7298 103.056 41.3503C103.436 40.9709 103.649 40.4562 103.649 39.9196C103.647 38.0017 102.885 36.1628 101.529 34.8064C100.173 33.45 98.3347 32.6869 96.4168 32.6843Z" fill="#63316D"/>
<path id="Vector_15" d="M96.4168 48.6722C95.8802 48.6722 95.3655 48.8854 94.986 49.2649C94.6066 49.6444 94.3934 50.159 94.3934 50.6957C94.3934 53.6994 93.2001 56.5801 91.0762 58.704C88.9523 60.8279 86.0716 62.0211 83.0679 62.0211C80.0642 62.0211 77.1835 60.8279 75.0596 58.704C72.9356 56.5801 71.7424 53.6994 71.7424 50.6957C71.7424 50.159 71.5292 49.6444 71.1498 49.2649C70.7703 48.8854 70.2556 48.6722 69.719 48.6722C69.1823 48.6722 68.6677 48.8854 68.2882 49.2649C67.9087 49.6444 67.6956 50.159 67.6956 50.6957C67.6956 54.7727 69.3151 58.6827 72.198 61.5656C75.0809 64.4484 78.9909 66.068 83.0679 66.068C87.1449 66.068 91.0549 64.4484 93.9378 61.5656C96.8207 58.6827 98.4402 54.7727 98.4402 50.6957C98.4402 50.159 98.2271 49.6444 97.8476 49.2649C97.4681 48.8854 96.9535 48.6722 96.4168 48.6722Z" fill="#63316D"/>
</g>
</g>
</g>
</svg>
