<svg width="162" height="162" viewBox="0 0 162 162" fill="none" xmlns="http://www.w3.org/2000/svg">
<path d="M108.22 46.0656C111.348 46.0657 114.436 46.7651 117.258 48.1127C120.08 49.4603 122.565 51.422 124.532 53.8541C126.498 56.2862 127.895 59.1272 128.622 62.1691C129.348 65.2111 129.385 68.3769 128.73 71.435L111.812 150.385C111.575 151.492 111.029 152.51 110.237 153.319C109.445 154.128 108.44 154.696 107.337 154.956C106.235 155.216 105.082 155.158 104.012 154.789C102.941 154.419 101.998 153.753 101.291 152.868L101.066 152.59C100.531 151.918 100.146 151.139 99.9369 150.306L80.3925 72.1279C79.6192 69.0359 79.5607 65.8082 80.2217 62.6902C80.8826 59.5721 82.2454 56.6458 84.2067 54.1333C86.168 51.6209 88.676 49.5885 91.5404 48.1905C94.4048 46.7926 97.5501 46.0659 100.737 46.0656H108.22Z" fill="#EC6A46"/>
<path d="M129.002 27.9103C129.002 28.796 128.758 29.6646 128.297 30.4209C127.836 31.1772 127.176 31.7919 126.388 32.1976L111.309 40.7848L119.899 25.7049C120.394 24.744 121.197 23.9772 122.18 23.5278C123.162 23.0783 124.268 22.9723 125.318 23.2268C126.368 23.4812 127.303 24.0814 127.971 24.9308C128.639 25.7802 129.002 26.8296 129.002 27.9103Z" fill="#3BB54A"/>
<path d="M109.806 7.27105C110.785 8.24909 111.476 9.47845 111.802 10.8238C112.128 12.1692 112.077 13.5784 111.653 14.8964L104.477 41.0664L97.3013 14.8964C96.7856 13.2871 96.826 11.5511 97.4159 9.96749C98.0057 8.38385 99.1109 7.04449 100.554 6.16464C101.997 5.28478 103.693 4.91552 105.371 5.11618C107.049 5.31685 108.611 6.07579 109.806 7.27105Z" fill="#87E680"/>
<path d="M88.8279 21.9365L97.4151 40.7848L82.3384 28.4291C81.6634 28.082 81.08 27.5804 80.6356 26.9651C80.1912 26.3498 79.8984 25.6383 79.781 24.8885C79.6636 24.1386 79.7249 23.3717 79.96 22.65C80.1951 21.9284 80.5973 21.2725 81.1338 20.7356C81.6704 20.1988 82.3261 19.7963 83.0476 19.5609C83.7692 19.3254 84.5361 19.2637 85.286 19.3808C86.0359 19.4978 86.7476 19.7903 87.363 20.2344C87.9785 20.6785 88.4804 21.2617 88.8279 21.9365Z" fill="#3BB54A"/>
<path d="M94.6941 151.154C94.9612 151.935 95.0014 152.776 94.8099 153.579C94.6184 154.382 94.2031 155.115 93.6122 155.691C93.0213 156.268 92.2789 156.665 91.4713 156.837C90.6637 157.009 89.8239 156.948 89.0494 156.662L88.8058 156.57C88.2164 156.353 87.6811 156.011 87.2364 155.567L45.6195 114.03C43.9729 112.387 42.7225 110.39 41.9633 108.192C41.204 105.993 40.9559 103.651 41.2377 101.342C41.5196 99.0331 42.324 96.819 43.5898 94.8677C44.8557 92.9164 46.5497 91.2793 48.5431 90.0809L53.2227 87.268C55.1783 86.0923 57.372 85.3687 59.6434 85.1502C61.9147 84.9317 64.2062 85.2238 66.3501 86.0051C68.4939 86.7865 70.436 88.0373 72.0341 89.6661C73.6322 91.2948 74.8458 93.2603 75.5863 95.4187L94.6941 151.154Z" fill="#EC6A46"/>
<path d="M59.3926 68.1001C59.7248 68.6544 59.8982 69.2894 59.8937 69.9356C59.8893 70.5819 59.7072 71.2144 59.3673 71.7641L53.1689 82.8035L52.8683 70.1441C52.8267 69.4996 52.9629 68.856 53.2619 68.2835C53.561 67.7111 54.0115 67.2317 54.5643 66.8977C55.364 66.4169 56.322 66.2734 57.2275 66.4989C58.1329 66.7244 58.9118 67.3004 59.3926 68.1001Z" fill="#3BB54A"/>
<path d="M43.6482 66.4864L49.0018 85.5467L34.6749 71.8812C34.0236 71.3108 33.5162 70.5947 33.194 69.7911C32.8718 68.9875 32.744 68.1192 32.8209 67.2568C32.8978 66.3945 33.1773 65.5625 33.6366 64.8286C34.096 64.0947 34.7221 63.4797 35.4641 63.0336C36.2061 62.5875 37.043 62.323 37.9065 62.2615C38.7701 62.2001 39.636 62.3435 40.4337 62.68C41.2314 63.0166 41.9383 63.5367 42.4969 64.1982C43.0555 64.8596 43.45 65.6437 43.6482 66.4864Z" fill="#87E680"/>
<path d="M108.22 43.8507H100.737C97.2135 43.851 93.7361 44.6545 90.5692 46.2C87.4024 47.7455 84.6294 49.9925 82.461 52.7702C80.2926 55.5479 78.7858 58.7833 78.0551 62.2306C77.3243 65.6778 77.3888 69.2463 78.2438 72.6649L97.7888 150.844C98.0778 151.988 98.6076 153.058 99.3427 153.981L99.5616 154.252C100.325 155.215 101.297 155.992 102.404 156.525C103.511 157.058 104.724 157.333 105.953 157.329C106.042 157.329 106.132 157.329 106.222 157.325C108.052 157.267 109.81 156.598 111.216 155.424C112.621 154.25 113.593 152.64 113.976 150.849L130.897 71.8985C131.622 68.5174 131.581 65.0172 130.777 61.654C129.974 58.2908 128.429 55.1497 126.255 52.4608C124.081 49.7719 121.333 47.6032 118.213 46.1135C115.092 44.6237 111.678 43.8506 108.22 43.8507ZM126.564 70.9699L125.104 77.7812H118.972C118.384 77.7812 117.821 78.0145 117.406 78.4299C116.99 78.8453 116.757 79.4086 116.757 79.996C116.757 80.5834 116.99 81.1468 117.406 81.5621C117.821 81.9775 118.384 82.2109 118.972 82.2109H124.155L123.491 85.318H117.842C117.255 85.318 116.692 85.5513 116.276 85.9667C115.861 86.3821 115.627 86.9454 115.627 87.5328C115.627 88.1202 115.861 88.6836 116.276 89.0989C116.692 89.5143 117.255 89.7477 117.842 89.7477H122.54L116.275 118.977H111.179C110.591 118.977 110.028 119.211 109.613 119.626C109.197 120.041 108.964 120.605 108.964 121.192C108.964 121.78 109.197 122.343 109.613 122.758C110.028 123.174 110.591 123.407 111.179 123.407H115.327L114.663 126.514H112.308C111.721 126.514 111.158 126.747 110.742 127.163C110.327 127.578 110.094 128.142 110.094 128.729C110.094 129.316 110.327 129.88 110.742 130.295C111.158 130.71 111.721 130.944 112.308 130.944H113.712L109.646 149.921C109.496 150.619 109.151 151.26 108.651 151.769C108.152 152.278 107.518 152.635 106.823 152.798C106.128 152.961 105.401 152.924 104.727 152.69C104.053 152.456 103.459 152.035 103.015 151.477L102.798 151.208C102.461 150.784 102.218 150.293 102.086 149.767L91.7261 108.334H92.6491C93.2365 108.334 93.7999 108.101 94.2152 107.686C94.6306 107.27 94.8639 106.707 94.8639 106.119C94.8639 105.532 94.6306 104.969 94.2152 104.553C93.7999 104.138 93.2365 103.905 92.6491 103.905H90.6187L89.8429 100.801H94.5327C95.1201 100.801 95.6834 100.567 96.0988 100.152C96.5142 99.7366 96.7475 99.1732 96.7475 98.5858C96.7475 97.9984 96.5142 97.4351 96.0988 97.0197C95.6834 96.6043 95.1201 96.371 94.5327 96.371H88.7364L84.1909 78.1903H88.5051C89.0925 78.1903 89.6559 77.9569 90.0713 77.5416C90.4866 77.1262 90.72 76.5629 90.72 75.9754C90.72 75.388 90.4866 74.8247 90.0713 74.4093C89.6559 73.9939 89.0925 73.7606 88.5051 73.7606H83.0835L82.5412 71.591C82.4637 71.28 82.3972 70.9683 82.3355 70.6567H94.9092C95.4966 70.6567 96.06 70.4233 96.4753 70.0079C96.8907 69.5926 97.124 69.0292 97.124 68.4418C97.124 67.8544 96.8907 67.291 96.4753 66.8757C96.06 66.4603 95.4966 66.227 94.9092 66.227H81.99C82.2038 61.3974 84.272 56.8364 87.7641 53.4935C91.2562 50.1505 95.9031 48.2832 100.737 48.2804H108.22C111.018 48.2805 113.779 48.9061 116.303 50.1113C118.827 51.3165 121.05 53.0709 122.809 55.2461C124.567 57.4213 125.817 59.9622 126.467 62.6827C127.117 65.4033 127.15 68.2348 126.564 70.9699Z" fill="#63316D"/>
<path d="M104.477 2.84766C102.946 2.84792 101.437 3.20864 100.071 3.90062C98.7058 4.5926 97.5223 5.59639 96.6167 6.83074C95.7111 8.0651 95.1089 9.49534 94.8587 11.0057C94.6086 12.516 94.7176 14.0641 95.1769 15.5245L102.341 41.6524C102.47 42.1202 102.748 42.5329 103.134 42.8271C103.52 43.1212 103.992 43.2806 104.477 43.2806C104.962 43.2806 105.434 43.1212 105.82 42.8271C106.206 42.5329 106.484 42.1202 106.613 41.6524L113.777 15.5257C114.236 14.0653 114.345 12.5173 114.095 11.0069C113.845 9.49644 113.243 8.0661 112.338 6.83163C111.432 5.59715 110.249 4.59322 108.883 3.90109C107.518 3.20896 106.008 2.84808 104.477 2.84766ZM109.545 14.2187C109.535 14.249 109.526 14.2797 109.517 14.3107L104.477 32.6911L99.4373 14.3107C99.4291 14.2807 99.4199 14.2503 99.4104 14.2206C99.046 13.0843 99.0742 11.8586 99.4904 10.7403C99.9067 9.62201 100.687 8.67616 101.706 8.05477C102.724 7.43338 103.922 7.17253 105.107 7.31416C106.292 7.45579 107.395 7.99166 108.238 8.83564L108.241 8.83881C108.935 9.52726 109.424 10.3946 109.654 11.3443C109.884 12.2941 109.846 13.2891 109.545 14.2187Z" fill="#63316D"/>
<path d="M124.183 20.8765C122.899 20.8735 121.639 21.2235 120.54 21.8882C119.441 22.553 118.547 23.5069 117.953 24.6458L109.384 39.6887C109.144 40.1104 109.049 40.5993 109.114 41.0802C109.179 41.5612 109.4 42.0075 109.743 42.3507C110.086 42.6938 110.532 42.9148 111.013 42.9796C111.494 43.0444 111.983 42.9495 112.405 42.7095L127.448 34.1431C128.842 33.4129 129.951 32.2366 130.597 30.8022C131.244 29.3677 131.391 27.7579 131.015 26.2301C130.639 24.7023 129.761 23.3446 128.523 22.3741C127.285 21.4036 125.757 20.8763 124.183 20.8765ZM125.375 30.2282C125.347 30.2423 125.32 30.2572 125.292 30.2728L117.23 34.8639L121.823 26.8012C121.839 26.774 121.855 26.7465 121.868 26.7186C122.056 26.3543 122.328 26.0395 122.66 25.7998C122.993 25.5602 123.377 25.4024 123.782 25.3394C124.187 25.2764 124.602 25.3099 124.991 25.4372C125.381 25.5645 125.735 25.782 126.025 26.072C126.315 26.362 126.532 26.7163 126.659 27.1061C126.786 27.4959 126.819 27.9102 126.756 28.3152C126.692 28.7202 126.534 29.1046 126.294 29.437C126.054 29.7694 125.739 30.0405 125.375 30.2282Z" fill="#63316D"/>
<path d="M90.7972 20.9226C90.2951 19.9472 89.5718 19.1028 88.6852 18.4567C87.7986 17.8107 86.7732 17.3809 85.6908 17.2018C84.6085 17.0227 83.4993 17.0992 82.4518 17.4252C81.4043 17.7512 80.4476 18.3176 79.658 19.0793C78.8685 19.8409 78.268 20.7767 77.9046 21.8117C77.5411 22.8468 77.4248 23.9526 77.5649 25.0406C77.7049 26.1287 78.0975 27.1689 78.7113 28.0782C79.325 28.9875 80.1429 29.7406 81.0996 30.2775L96.0112 42.4977C96.3981 42.8146 96.8809 42.9912 97.3809 42.9988C97.8809 43.0064 98.3687 42.8446 98.7651 42.5397C99.1614 42.2347 99.4429 41.8047 99.5638 41.3194C99.6846 40.8342 99.6377 40.3223 99.4307 39.8671L90.8434 21.0188C90.8288 20.9859 90.8133 20.9543 90.7972 20.9226ZM83.7413 26.716C83.6201 26.6167 83.4887 26.5304 83.3493 26.4588C82.9865 26.2717 82.6728 26.0021 82.4334 25.6715C82.1939 25.3409 82.0355 24.9588 81.9709 24.5557C81.9063 24.1527 81.9373 23.7402 82.0614 23.3514C82.1855 22.9625 82.3993 22.6083 82.6854 22.3172C82.9715 22.0262 83.3221 21.8064 83.7087 21.6757C84.0954 21.545 84.5073 21.5069 84.9114 21.5646C85.3154 21.6223 85.7003 21.7742 86.0349 22.0079C86.3695 22.2417 86.6445 22.5508 86.8377 22.9103L91.449 33.0327L83.7413 26.716Z" fill="#63316D"/>
<path d="M51.1341 84.9481L45.7925 65.9296C45.4642 64.559 44.765 63.3053 43.7716 62.3056C42.7782 61.3059 41.5289 60.5988 40.1605 60.2618H40.1586C39.1755 60.0163 38.1537 59.967 37.1516 60.1167C36.1495 60.2665 35.1868 60.6123 34.3184 61.1344C33.4501 61.6565 32.6932 62.3447 32.091 63.1595C31.4889 63.9744 31.0532 64.9 30.8091 65.8834C30.4664 67.2501 30.5059 68.6847 30.9234 70.0305C31.3409 71.3763 32.1203 72.5814 33.1764 73.5141L47.472 87.1513C47.7076 87.3742 47.9895 87.5426 48.2975 87.6445L47.4014 88.1824C45.1196 89.5544 43.1806 91.4283 41.7316 93.662C40.2826 95.8957 39.3618 98.4302 39.0392 101.073C38.7165 103.716 39.0006 106.398 39.8697 108.914C40.7387 111.431 42.1701 113.716 44.0548 115.597L85.6755 157.139C86.3424 157.802 87.1435 158.315 88.0251 158.643L88.2783 158.738C89.014 159.013 89.7927 159.154 90.5779 159.155C91.6243 159.151 92.6548 158.899 93.5841 158.418C94.5134 157.937 95.3147 157.241 95.9217 156.389C96.5287 155.536 96.9239 154.552 97.0745 153.516C97.2252 152.481 97.127 151.424 96.788 150.434L77.6812 94.7004C76.9246 92.4934 75.7347 90.4599 74.1814 88.7191C72.628 86.9783 70.7426 85.5654 68.6357 84.5633C66.5289 83.5611 64.243 82.99 61.9124 82.8834C59.5818 82.7769 57.2534 83.1369 55.0638 83.9426C55.0752 83.9233 55.0892 83.9065 55.1002 83.8869L61.2781 72.8836C61.8214 71.9918 62.1099 70.9682 62.1124 69.9239C62.1148 68.8797 61.8311 67.8547 61.292 66.9604L61.2901 66.9566C60.777 66.1108 60.055 65.4111 59.1936 64.9247C58.3322 64.4383 57.3602 64.1815 56.3709 64.1789C55.5914 64.1799 54.8202 64.3399 54.1046 64.6491C53.389 64.9584 52.744 65.4104 52.2091 65.9775C51.6742 66.5445 51.2607 67.2148 50.9937 67.9472C50.7268 68.6797 50.6121 69.4588 50.6566 70.2371L50.9563 82.856C50.9678 83.3413 51.1383 83.8093 51.4418 84.1882C51.7452 84.567 52.1647 84.8357 52.6357 84.9529C52.6822 84.9646 52.7307 84.9703 52.7762 84.9788C52.5433 85.1054 52.3114 85.2319 52.0833 85.3699L51.1819 85.9116C51.2375 85.5909 51.2211 85.2618 51.1341 84.9481ZM36.2035 70.2783C36.1807 70.2567 36.1576 70.2355 36.1339 70.215C35.6313 69.7755 35.2748 69.1932 35.1117 68.5458C34.9487 67.8984 34.9869 67.2167 35.2213 66.5916C35.4558 65.9665 35.8752 65.4277 36.4238 65.0472C36.9723 64.6666 37.6238 64.4624 38.2915 64.4618C38.562 64.4623 38.8314 64.4957 39.0939 64.5611C39.6791 64.7059 40.2129 65.0097 40.6361 65.4389C41.0594 65.8682 41.3557 66.4061 41.4922 66.9933C41.4996 67.0243 41.5075 67.055 41.516 67.0854L44.6851 78.3688L36.2035 70.2783ZM55.7084 68.794C55.9084 68.6735 56.1374 68.6097 56.3709 68.6095C56.6036 68.6083 56.8324 68.6694 57.0335 68.7866C57.2346 68.9038 57.4005 69.0728 57.5142 69.2759C57.6278 69.479 57.6849 69.7088 57.6795 69.9415C57.6742 70.1741 57.6066 70.4011 57.4837 70.5988C57.4673 70.6254 57.4521 70.6523 57.4359 70.6798L55.1914 74.6776L55.0825 70.0916C55.0825 70.0599 55.0806 70.0308 55.0784 70.0005C55.0624 69.7609 55.1127 69.5215 55.2238 69.3087C55.3349 69.0958 55.5026 68.9178 55.7084 68.794ZM54.364 89.1661C56.0366 88.1606 57.9128 87.5417 59.8555 87.3549C61.7981 87.168 63.758 87.4179 65.5916 88.0861C67.4252 88.7544 69.0862 89.8242 70.453 91.2172C71.8199 92.6102 72.858 94.2912 73.4913 96.1372L74.9829 100.488L71.5625 102.544C71.3132 102.694 71.0959 102.892 70.9229 103.126C70.7499 103.36 70.6247 103.625 70.5544 103.907C70.4841 104.19 70.4701 104.483 70.5131 104.771C70.5562 105.058 70.6555 105.335 70.8054 105.584C70.9552 105.833 71.1528 106.051 71.3866 106.224C71.6205 106.397 71.8861 106.522 72.1684 106.592C72.4507 106.663 72.744 106.677 73.0317 106.634C73.3194 106.59 73.5958 106.491 73.8451 106.341L76.452 104.774L76.8066 105.808L73.6888 107.683C73.1853 107.986 72.8226 108.476 72.6806 109.047C72.5387 109.617 72.6289 110.22 72.9316 110.723C73.2343 111.227 73.7246 111.589 74.2947 111.731C74.8647 111.873 75.4678 111.783 75.9713 111.48L78.2757 110.095L84.9519 129.572L82.1767 131.241C81.9274 131.39 81.71 131.588 81.5371 131.822C81.3641 132.056 81.2389 132.321 81.1686 132.604C81.0983 132.886 81.0843 133.179 81.1274 133.467C81.1705 133.755 81.2698 134.031 81.4197 134.28C81.5696 134.53 81.7671 134.747 82.001 134.92C82.2349 135.093 82.5006 135.218 82.7828 135.289C83.0651 135.359 83.3585 135.373 83.6462 135.33C83.9339 135.287 84.2103 135.187 84.4596 135.037L86.4213 133.858L86.7757 134.892L85.7163 135.529C85.4644 135.678 85.2444 135.875 85.069 136.109C84.8936 136.343 84.7664 136.61 84.6946 136.893C84.6228 137.177 84.6078 137.472 84.6507 137.761C84.6935 138.05 84.7932 138.328 84.9441 138.579C85.0949 138.83 85.2939 139.048 85.5296 139.221C85.7653 139.395 86.033 139.519 86.3172 139.589C86.6013 139.658 86.8965 139.67 87.1854 139.625C87.4744 139.579 87.7515 139.477 88.0008 139.324L88.2447 139.177L92.5975 151.874C92.691 152.145 92.7286 152.432 92.7083 152.718V152.72C92.6855 153.052 92.5858 153.375 92.417 153.662C92.2482 153.949 92.015 154.193 91.7358 154.374C91.4565 154.556 91.1389 154.67 90.8079 154.708C90.477 154.745 90.1419 154.705 89.829 154.591L89.5651 154.492C89.2781 154.385 89.0173 154.218 88.8 154.002L67.2844 132.526C67.7678 132.208 68.107 131.712 68.2293 131.146C68.3515 130.58 68.2471 129.989 67.9385 129.499C67.6298 129.009 67.1415 128.66 66.5782 128.526C66.0149 128.392 65.4215 128.484 64.9253 128.782L64.0558 129.304L63.2752 128.525L65.5518 127.156C66.0553 126.853 66.4179 126.363 66.5598 125.793C66.7018 125.223 66.6115 124.619 66.3088 124.116C66.006 123.612 65.5157 123.25 64.9456 123.108C64.3755 122.966 63.7724 123.056 63.2689 123.359L60.0438 125.297L51.2398 116.51L53.2818 115.282C53.5311 115.132 53.7485 114.935 53.9215 114.701C54.0944 114.467 54.2197 114.201 54.29 113.919C54.3603 113.637 54.3743 113.343 54.3312 113.056C54.2882 112.768 54.1889 112.492 54.039 112.242C53.8891 111.993 53.6916 111.776 53.4577 111.603C53.2239 111.43 52.9582 111.304 52.676 111.234C52.1059 111.092 51.5028 111.182 50.9993 111.485L48.008 113.284L47.228 112.505L54.4535 108.163C54.7028 108.013 54.9201 107.816 55.0931 107.582C55.2661 107.348 55.3913 107.082 55.4617 106.8C55.532 106.518 55.546 106.225 55.503 105.937C55.4599 105.649 55.3607 105.373 55.2108 105.124C55.061 104.874 54.8635 104.657 54.6296 104.484C54.3958 104.311 54.1301 104.186 53.8479 104.115C53.5656 104.045 53.2723 104.031 52.9846 104.074C52.6969 104.117 52.4206 104.216 52.1713 104.366L44.6408 108.894C43.2232 105.953 42.9544 102.589 43.8873 99.4602C44.8201 96.3315 46.8873 93.6637 49.684 91.9793L54.364 89.1661Z" fill="#63316D"/>
</svg>
